<svg id="image" xmlns="http://www.w3.org/2000/svg" width="23.423" height="23.423" viewBox="0 0 23.423 23.423">
  <g id="Group_5" data-name="Group 5">
    <g id="Group_4" data-name="Group 4">
      <path id="Path_3" data-name="Path 3" d="M20.43,0H2.993A3,3,0,0,0,0,2.993V20.43a3,3,0,0,0,2.993,2.993H20.43a3,3,0,0,0,2.993-2.993V2.993A3,3,0,0,0,20.43,0Zm1.613,20.43a1.615,1.615,0,0,1-1.613,1.613H2.993A1.615,1.615,0,0,1,1.38,20.43V17.913L5.92,14.05a.446.446,0,0,1,.575,0l2.844,2.362a.69.69,0,0,0,.929-.043L17.026,9.6a.447.447,0,0,1,.663.034l4.354,5.361V20.43Zm0-7.627L18.76,8.761a1.826,1.826,0,0,0-2.71-.139L9.737,14.945l-2.36-1.96A1.823,1.823,0,0,0,5.026,13L1.38,16.1V2.993A1.615,1.615,0,0,1,2.993,1.38H20.43a1.615,1.615,0,0,1,1.613,1.613Z" fill="#999"/>
    </g>
  </g>
  <g id="Group_7" data-name="Group 7" transform="translate(4.047 2.882)">
    <g id="Group_6" data-name="Group 6">
      <path id="Path_4" data-name="Path 4" d="M91.787,62.995a3.326,3.326,0,1,0,3.326,3.326A3.33,3.33,0,0,0,91.787,62.995Zm0,5.273a1.947,1.947,0,1,1,1.947-1.947A1.949,1.949,0,0,1,91.787,68.268Z" transform="translate(-88.461 -62.995)" fill="#999"/>
    </g>
  </g>
</svg>
