<svg xmlns="http://www.w3.org/2000/svg" width="10.235" height="9.391" viewBox="0 0 10.235 9.391">
  <path id="ic_favorite_border_24px" d="M9.421,3a3.065,3.065,0,0,0-2.3,1.07A3.065,3.065,0,0,0,4.815,3,2.787,2.787,0,0,0,2,5.815c0,1.934,1.74,3.511,4.376,5.906l.742.67.742-.676c2.636-2.39,4.376-3.966,4.376-5.9A2.787,2.787,0,0,0,9.421,3ZM7.169,10.958l-.051.051-.051-.051C4.63,8.752,3.024,7.294,3.024,5.815A1.749,1.749,0,0,1,4.815,4.024,2,2,0,0,1,6.642,5.231H7.6A1.988,1.988,0,0,1,9.421,4.024a1.749,1.749,0,0,1,1.791,1.791C11.212,7.294,9.6,8.752,7.169,10.958Z" transform="translate(-2 -3)" fill="#fa5216"/>
</svg>
