<svg id="_097-user" data-name="097-user" xmlns="http://www.w3.org/2000/svg" width="11.328" height="11.328" viewBox="0 0 11.328 11.328">
  <g id="Group_1" data-name="Group 1" transform="translate(0)">
    <path id="Path_2" data-name="Path 2" d="M9.669,7.323a5.643,5.643,0,0,0-2.152-1.35,3.275,3.275,0,1,0-3.706,0A5.673,5.673,0,0,0,0,11.328H.885a4.779,4.779,0,1,1,9.558,0h.885A5.627,5.627,0,0,0,9.669,7.323ZM5.664,5.664a2.39,2.39,0,1,1,2.39-2.39A2.392,2.392,0,0,1,5.664,5.664Z" transform="translate(0 0)" fill="#fa5216"/>
  </g>
</svg>
